<?xml version="1.0" encoding="utf-8"?>
<!-- Generator: Adobe Illustrator 24.1.1, SVG Export Plug-In . SVG Version: 6.00 Build 0)  -->
<svg version="1.1" xmlns="http://www.w3.org/2000/svg" xmlns:xlink="http://www.w3.org/1999/xlink" x="0px" y="0px"
	 viewBox="0 0 251 243" style="enable-background:new 0 0 251 243;" xml:space="preserve">
<style type="text/css">
	.st0{fill:url(#SVGID_1_);}
	
		.st1{opacity:0.5;fill:none;stroke:#FFFF00;stroke-width:3.4795;stroke-linecap:round;stroke-linejoin:round;stroke-miterlimit:10;stroke-dasharray:1.7398,8.6989,1.7398,8.6989,1.7398,8.6989;}
	
		.st2{fill:none;stroke:#FFFFFF;stroke-width:1.7398;stroke-linecap:round;stroke-linejoin:round;stroke-miterlimit:10;stroke-dasharray:1.7398,8.6989,1.7398,8.6989,1.7398,8.6989;}
	.st3{fill:#FFFFFF;}
	.st4{fill:none;stroke:#FFFFFF;stroke-width:2.7089;stroke-miterlimit:10;}
</style>
<g id="레이어_1">
	<path class="st3" d="M117.86,40c-45.29,0-82.14,36.85-82.14,82.14s36.85,82.14,82.14,82.14S200,167.43,200,122.14
		S163.15,40,117.86,40z M160.09,62.11H75.64c11.95-8.43,26.52-13.39,42.23-13.39S148.14,53.67,160.09,62.11z M44.44,122.14
		c0-22.91,10.55-43.4,27.05-56.88l-1.81,28.65l2,0.17c0.58-4.53,1.76-8.41,3.53-11.63c1.77-3.22,4.34-6.17,7.71-8.84
		c4.12-3.25,8.79-5.53,13.99-6.84c5.2-1.31,12.3-1.96,21.31-1.96h24.92L68.69,176.61C53.81,163.17,44.44,143.73,44.44,122.14z
		 M74.1,181.05h87.53c-12.23,9.11-27.38,14.51-43.77,14.51S86.33,190.16,74.1,181.05z M170.73,173.03l2.12-29.45l-2-0.09
		c-0.76,4.18-1.89,7.87-3.4,11.07c-3.6,7.55-8.4,13.16-14.38,16.82c-7.44,4.65-19.29,6.97-35.55,6.97H89.63l74.61-113.09
		c16.49,13.48,27.04,33.96,27.04,56.87C191.29,141.88,183.45,159.82,170.73,173.03z"/>
</g>
<g id="레이어_2">
</g>
</svg>
